<svg width="30" height="30" viewBox="0 0 30 30" fill="none" xmlns="http://www.w3.org/2000/svg">
<g clip-path="url(#clip0_2203_1890)">
<path d="M23.5102 12.198C22.684 8.00622 19.0026 4.85938 14.58 4.85938C11.0686 4.85938 8.019 6.85197 6.50025 9.76797C2.8431 10.1568 0 13.255 0 17.0094C0 21.031 3.26835 24.2994 7.29 24.2994H23.085C26.4384 24.2994 29.16 21.5778 29.16 18.2244C29.16 15.0168 26.6692 12.4167 23.5102 12.198ZM23.085 21.8694H7.29C4.60485 21.8694 2.43 19.6945 2.43 17.0094C2.43 14.5186 4.28895 12.441 6.7554 12.1858L8.05545 12.0522L8.66295 10.8979C9.8172 8.67447 12.0771 7.28937 14.58 7.28937C17.7633 7.28937 20.5092 9.54927 21.1288 12.6718L21.4933 14.4943L23.3523 14.628C25.2477 14.7495 26.73 16.3411 26.73 18.2244C26.73 20.2291 25.0897 21.8694 23.085 21.8694ZM9.72 15.7944H12.8182V19.4394H16.3417V15.7944H19.44L14.58 10.9344L9.72 15.7944Z" fill="#1849D6"/>
</g>
<defs>
<clipPath id="clip0_2203_1890">
<rect width="29.16" height="29.16" fill="white"/>
</clipPath>
</defs>
</svg>
