<svg width="15" height="16" viewBox="0 0 15 16" fill="none" xmlns="http://www.w3.org/2000/svg">
<g id="duotone / trash-2">
<path id="tone" d="M11.25 11.5525V4.44727H9.375H5.625H3.75V11.5525C3.75 12.2065 4.30964 12.7367 5 12.7367H10C10.6904 12.7367 11.25 12.2065 11.25 11.5525Z" fill="black" fill-opacity="0.15"/>
<path id="shape" d="M6.25 6.81564V10.3683M8.75 6.81564V10.3683M11.25 4.44721V11.5525C11.25 12.2065 10.6904 12.7367 10 12.7367H5C4.30964 12.7367 3.75 12.2065 3.75 11.5525V4.44721M11.25 4.44721H9.375M11.25 4.44721H12.5M3.75 4.44721H2.5M3.75 4.44721H5.625M9.375 4.44721V3.85511C9.375 3.20109 8.81536 2.6709 8.125 2.6709H6.875C6.18464 2.6709 5.625 3.20109 5.625 3.85511V4.44721M9.375 4.44721H5.625" stroke="#123F6D" stroke-linecap="round" stroke-linejoin="round"/>
</g>
</svg>
