<svg width="23" height="25" viewBox="0 0 23 25" fill="none" xmlns="http://www.w3.org/2000/svg">
<path d="M17.25 18.75V6.25H14.375H8.625H5.75V18.75C5.75 19.9006 6.60812 20.8333 7.66667 20.8333H15.3333C16.3919 20.8333 17.25 19.9006 17.25 18.75Z" fill="black" fill-opacity="0.15"/>
<path d="M9.58337 10.4167V16.6667M13.4167 10.4167V16.6667M17.25 6.25V18.75C17.25 19.9006 16.3919 20.8333 15.3334 20.8333H7.66671C6.60816 20.8333 5.75004 19.9006 5.75004 18.75V6.25M17.25 6.25H14.375M17.25 6.25H19.1667M5.75004 6.25H3.83337M5.75004 6.25H8.62504M14.375 6.25V5.20833C14.375 4.05774 13.5169 3.125 12.4584 3.125H10.5417C9.48316 3.125 8.62504 4.05774 8.62504 5.20833V6.25M14.375 6.25H8.62504" stroke="#123F6D" stroke-linecap="round" stroke-linejoin="round"/>
</svg>
