<svg width="11" height="11" viewBox="0 0 11 11" fill="none" xmlns="http://www.w3.org/2000/svg">
<rect width="11" height="11" fill="white" fill-opacity="0.01"/>
<path fill-rule="evenodd" clip-rule="evenodd" d="M7.05566 0.833956C7.19886 0.690764 7.43099 0.690765 7.57421 0.833956L10.1669 3.42668C10.3101 3.56988 10.3101 3.80203 10.1669 3.94523C10.0238 4.08842 9.79159 4.08842 9.64837 3.94523L9.1695 3.46635L6.50271 7.02209L7.31494 7.83431C7.45812 7.97753 7.45812 8.2097 7.31494 8.35285C7.17175 8.49607 6.93958 8.49607 6.79639 8.35285L4.98149 6.53796L2.58322 8.93621C2.44002 9.07943 2.20786 9.07943 2.06467 8.93621C1.92148 8.79307 1.92148 8.56089 2.06467 8.41767L4.46294 6.01941L2.64803 4.2045C2.50484 4.06131 2.50484 3.82915 2.64803 3.68596C2.79123 3.54276 3.02338 3.54276 3.16657 3.68596L3.9788 4.49818L7.53453 1.83138L7.05566 1.3525C6.91247 1.20931 6.91247 0.977147 7.05566 0.833956Z" fill="#1C2024"/>
<path fill-rule="evenodd" clip-rule="evenodd" d="M7.05566 0.833956C7.19886 0.690764 7.43099 0.690765 7.57421 0.833956L10.1669 3.42668C10.3101 3.56988 10.3101 3.80203 10.1669 3.94523C10.0238 4.08842 9.79159 4.08842 9.64837 3.94523L9.1695 3.46635L6.50271 7.02209L7.31494 7.83431C7.45812 7.97753 7.45812 8.2097 7.31494 8.35285C7.17175 8.49607 6.93958 8.49607 6.79639 8.35285L4.98149 6.53796L2.58322 8.93621C2.44002 9.07943 2.20786 9.07943 2.06467 8.93621C1.92148 8.79307 1.92148 8.56089 2.06467 8.41767L4.46294 6.01941L2.64803 4.2045C2.50484 4.06131 2.50484 3.82915 2.64803 3.68596C2.79123 3.54276 3.02338 3.54276 3.16657 3.68596L3.9788 4.49818L7.53453 1.83138L7.05566 1.3525C6.91247 1.20931 6.91247 0.977147 7.05566 0.833956Z" fill="#1C2024"/>
</svg>
