<svg width="17" height="17" viewBox="0 0 17 17" fill="none" xmlns="http://www.w3.org/2000/svg">
<g id="duotone / filters-2">
<g id="tone">
<path d="M4.25016 12.0417C5.03257 12.0417 5.66683 12.6759 5.66683 13.4583C5.66683 14.2407 5.03257 14.875 4.25016 14.875C3.46776 14.875 2.8335 14.2407 2.8335 13.4583C2.8335 12.6759 3.46776 12.0417 4.25016 12.0417Z" fill="black" fill-opacity="0.15"/>
<path d="M12.7502 7.08333C13.5326 7.08333 14.1668 7.7176 14.1668 8.5C14.1668 9.2824 13.5326 9.91667 12.7502 9.91667C11.9678 9.91667 11.3335 9.2824 11.3335 8.5C11.3335 7.7176 11.9678 7.08333 12.7502 7.08333Z" fill="black" fill-opacity="0.15"/>
<path d="M9.91683 3.54167C9.91683 2.75926 9.28257 2.125 8.50016 2.125C7.71776 2.125 7.0835 2.75926 7.0835 3.54167C7.0835 4.32407 7.71776 4.95833 8.50016 4.95833C9.28257 4.95833 9.91683 4.32407 9.91683 3.54167Z" fill="black" fill-opacity="0.15"/>
</g>
<path id="shape" d="M2.8335 3.54167L7.0835 3.54167M7.0835 3.54167C7.0835 4.32407 7.71776 4.95833 8.50016 4.95833C9.28257 4.95833 9.91683 4.32407 9.91683 3.54167M7.0835 3.54167C7.0835 2.75926 7.71776 2.125 8.50016 2.125C9.28257 2.125 9.91683 2.75926 9.91683 3.54167M9.91683 3.54167L14.1668 3.54167M2.8335 8.5H11.3335M11.3335 8.5C11.3335 9.2824 11.9678 9.91667 12.7502 9.91667C13.5326 9.91667 14.1668 9.2824 14.1668 8.5C14.1668 7.7176 13.5326 7.08333 12.7502 7.08333C11.9678 7.08333 11.3335 7.7176 11.3335 8.5ZM5.66683 13.4583H14.1668M5.66683 13.4583C5.66683 12.6759 5.03257 12.0417 4.25016 12.0417C3.46776 12.0417 2.8335 12.6759 2.8335 13.4583C2.8335 14.2407 3.46776 14.875 4.25016 14.875C5.03257 14.875 5.66683 14.2407 5.66683 13.4583Z" stroke="#123F6D" stroke-linecap="round" stroke-linejoin="round"/>
</g>
</svg>
