<svg width="11" height="11" viewBox="0 0 11 11" fill="none" xmlns="http://www.w3.org/2000/svg">
<rect width="11" height="11" fill="white" fill-opacity="0.01"/>
<path fill-rule="evenodd" clip-rule="evenodd" d="M8.69253 0.839818C8.54931 0.696623 8.31713 0.696623 8.17399 0.839818L2.72389 6.28989C2.65792 6.35586 2.60515 6.4338 2.5684 6.51956L1.49621 9.02129C1.43715 9.15915 1.46794 9.31902 1.57396 9.42506C1.67998 9.53103 1.83986 9.56183 1.97767 9.5028L4.47943 8.43059C4.56518 8.39385 4.64313 8.34105 4.70911 8.27512L10.1592 2.82502C10.3023 2.68183 10.3023 2.44968 10.1592 2.30648L8.69253 0.839818ZM3.24244 6.80843L8.43322 1.61764L9.38135 2.56575L4.19056 7.75658L3.094 8.2265L2.77248 7.90501L3.24244 6.80843Z" fill="#1C2024"/>
</svg>
