<svg width="16" height="16" viewBox="0 0 16 16" fill="none" xmlns="http://www.w3.org/2000/svg">
<rect width="14.5641" height="16" transform="translate(0.910156)" fill="white" fill-opacity="0.01"/>
<path fill-rule="evenodd" clip-rule="evenodd" d="M12.4193 1.22262C12.2297 1.01434 11.9223 1.01434 11.7328 1.22262L4.51678 9.14999C4.42943 9.24595 4.35956 9.35932 4.3109 9.48406L2.89132 13.1229C2.81312 13.3235 2.85389 13.556 2.99426 13.7102C3.13463 13.8644 3.34631 13.9092 3.52877 13.8233L6.84113 12.2637C6.95466 12.2103 7.05788 12.1335 7.14522 12.0376L14.3612 4.11019C14.5507 3.90192 14.5507 3.56423 14.3612 3.35595L12.4193 1.22262ZM5.20334 9.90424L12.076 2.35399L13.3313 3.73307L6.45866 11.2834L5.0068 11.9669L4.58111 11.4993L5.20334 9.90424Z" fill="#123F6D"/>
</svg>
