<svg width="16" height="16" viewBox="0 0 16 16" fill="none" xmlns="http://www.w3.org/2000/svg">
<rect width="16" height="16" fill="white" fill-opacity="0.01"/>
<path fill-rule="evenodd" clip-rule="evenodd" d="M12.6438 1.22262C12.4355 1.01434 12.0978 1.01434 11.8896 1.22262L3.96216 9.14999C3.8662 9.24595 3.78944 9.35932 3.73598 9.48406L2.17644 13.1229C2.09053 13.3235 2.13532 13.556 2.28953 13.7102C2.44374 13.8644 2.67629 13.9092 2.87674 13.8233L6.51567 12.2637C6.6404 12.2103 6.75378 12.1335 6.84974 12.0376L14.7771 4.11019C14.9854 3.90192 14.9854 3.56423 14.7771 3.35595L12.6438 1.22262ZM4.71641 9.90424L12.2666 2.35399L13.6457 3.73307L6.09549 11.2834L4.50049 11.9669L4.03283 11.4993L4.71641 9.90424Z" fill="#1C2024"/>
</svg>
