<svg width="16" height="16" viewBox="0 0 16 16" fill="none" xmlns="http://www.w3.org/2000/svg">
<rect width="14.5641" height="16" transform="translate(0.910156)" fill="white" fill-opacity="0.01"/>
<path fill-rule="evenodd" clip-rule="evenodd" d="M10.2518 1.21187C10.4414 1.00359 10.7487 1.00359 10.9383 1.21187L14.3711 4.98311C14.5607 5.19139 14.5607 5.52908 14.3711 5.73736C14.1816 5.94563 13.8742 5.94563 13.6845 5.73736L13.0505 5.04081L9.51967 10.2128L10.5951 11.3942C10.7846 11.6025 10.7846 11.9402 10.5951 12.1484C10.4055 12.3568 10.0981 12.3568 9.9085 12.1484L7.50555 9.5086L4.33022 12.997C4.14063 13.2053 3.83324 13.2053 3.64365 12.997C3.45407 12.7888 3.45407 12.4511 3.64365 12.2427L6.81899 8.75435L4.41604 6.11448C4.22645 5.9062 4.22644 5.56851 4.41604 5.36024C4.60562 5.15196 4.913 5.15196 5.10259 5.36024L6.17798 6.54165L10.8858 2.66267L10.2518 1.96612C10.0622 1.75785 10.0622 1.42015 10.2518 1.21187Z" fill="#123F6D"/>
<path fill-rule="evenodd" clip-rule="evenodd" d="M10.2518 1.21187C10.4414 1.00359 10.7487 1.00359 10.9383 1.21187L14.3711 4.98311C14.5607 5.19139 14.5607 5.52908 14.3711 5.73736C14.1816 5.94563 13.8742 5.94563 13.6845 5.73736L13.0505 5.04081L9.51967 10.2128L10.5951 11.3942C10.7846 11.6025 10.7846 11.9402 10.5951 12.1484C10.4055 12.3568 10.0981 12.3568 9.9085 12.1484L7.50555 9.5086L4.33022 12.997C4.14063 13.2053 3.83324 13.2053 3.64365 12.997C3.45407 12.7888 3.45407 12.4511 3.64365 12.2427L6.81899 8.75435L4.41604 6.11448C4.22645 5.9062 4.22644 5.56851 4.41604 5.36024C4.60562 5.15196 4.913 5.15196 5.10259 5.36024L6.17798 6.54165L10.8858 2.66267L10.2518 1.96612C10.0622 1.75785 10.0622 1.42015 10.2518 1.21187Z" fill="#123F6D"/>
</svg>
