<svg width="16" height="16" viewBox="0 0 16 16" fill="none" xmlns="http://www.w3.org/2000/svg">
<rect width="16" height="16" fill="white" fill-opacity="0.01"/>
<path fill-rule="evenodd" clip-rule="evenodd" d="M10.2628 1.2109C10.471 1.00262 10.8087 1.00262 11.017 1.2109L14.7882 4.98213C14.9965 5.19042 14.9965 5.5281 14.7882 5.73638C14.58 5.94466 14.2423 5.94466 14.034 5.73638L13.3374 5.03984L9.45847 10.2118L10.6399 11.3932C10.8482 11.6015 10.8482 11.9392 10.6399 12.1475C10.4316 12.3558 10.0939 12.3558 9.88564 12.1475L7.24578 9.50762L3.75738 12.996C3.54911 13.2043 3.21141 13.2043 3.00313 12.996C2.79485 12.7878 2.79485 12.4501 3.00313 12.2418L6.49153 8.75337L3.85166 6.1135C3.64339 5.90522 3.64338 5.56754 3.85166 5.35926C4.05994 5.15098 4.39763 5.15098 4.6059 5.35926L5.78732 6.54068L10.9593 2.66169L10.2628 1.96515C10.0545 1.75687 10.0545 1.41917 10.2628 1.2109Z" fill="#1C2024"/>
<path fill-rule="evenodd" clip-rule="evenodd" d="M10.2628 1.2109C10.471 1.00262 10.8087 1.00262 11.017 1.2109L14.7882 4.98213C14.9965 5.19042 14.9965 5.5281 14.7882 5.73638C14.58 5.94466 14.2423 5.94466 14.034 5.73638L13.3374 5.03984L9.45847 10.2118L10.6399 11.3932C10.8482 11.6015 10.8482 11.9392 10.6399 12.1475C10.4316 12.3558 10.0939 12.3558 9.88564 12.1475L7.24578 9.50762L3.75738 12.996C3.54911 13.2043 3.21141 13.2043 3.00313 12.996C2.79485 12.7878 2.79485 12.4501 3.00313 12.2418L6.49153 8.75337L3.85166 6.1135C3.64339 5.90522 3.64338 5.56754 3.85166 5.35926C4.05994 5.15098 4.39763 5.15098 4.6059 5.35926L5.78732 6.54068L10.9593 2.66169L10.2628 1.96515C10.0545 1.75687 10.0545 1.41917 10.2628 1.2109Z" fill="#1C2024"/>
</svg>
