<svg width="143" height="111" viewBox="0 0 143 111" fill="none" xmlns="http://www.w3.org/2000/svg">
<path d="M110.65 40.7922C110.353 40.7922 110.353 41.3454 110.65 41.3454C111.356 41.3454 121.189 41.1823 122.014 41.0192C122.09 41.0078 122.158 40.9697 122.208 40.9118C122.258 40.8539 122.285 40.78 122.285 40.7036C122.285 40.6271 122.258 40.5533 122.208 40.4953C122.158 40.4374 122.09 40.3993 122.014 40.388C119.424 40.0475 113.502 40.7355 110.65 40.7922ZM114.589 55.275C114.264 55.275 114.32 55.8211 114.631 55.8353C116.932 55.9133 120.518 55.7927 122.868 55.6863C123.299 55.6863 123.348 54.9771 122.868 54.9771C120.236 54.9913 117.229 55.0267 114.589 55.275ZM114.892 30.8132C114.824 30.8161 114.759 30.844 114.709 30.8915C114.66 30.939 114.629 31.003 114.623 31.0716C114.617 31.1401 114.636 31.2085 114.676 31.264C114.717 31.3196 114.776 31.3585 114.843 31.3735C116.106 31.5295 120.207 31.6926 121.443 31.1678C121.506 31.1363 121.557 31.085 121.589 31.0216C121.62 30.9582 121.631 30.8862 121.618 30.8165C121.605 30.7467 121.57 30.6831 121.518 30.6351C121.466 30.5872 121.4 30.5576 121.33 30.5507C119.692 30.4514 117.066 30.9763 114.892 30.8132ZM106.831 44.5158C112.789 44.4306 119.537 44.0122 125.551 43.459C125.925 43.459 125.89 42.7497 125.501 42.7497C119.586 42.8987 112.676 43.2888 106.796 43.8987C106.714 43.9034 106.638 43.9404 106.584 44.0016C106.53 44.0628 106.502 44.1431 106.506 44.225C106.511 44.3068 106.548 44.3834 106.609 44.4379C106.67 44.4925 106.75 44.5205 106.831 44.5158ZM115.372 12.926C117.031 12.7984 118.69 12.6991 120.313 12.5005C120.779 12.4508 120.659 11.7912 120.2 11.7912C118.549 11.9189 116.897 12.1317 115.259 12.3232C114.878 12.3657 114.984 12.9544 115.372 12.926ZM105.688 27.7209C105.335 27.7209 105.321 28.3237 105.688 28.3521C109.678 28.5388 113.677 28.258 117.603 27.5152C118.047 27.4372 117.977 26.7279 117.525 26.8059C113.616 27.4758 109.653 27.7821 105.688 27.7209ZM118.824 16.3233C119.438 16.4723 119.53 15.4651 118.965 15.5644C116.21 16.0132 113.418 16.1866 110.629 16.0822C110.255 16.0822 110.17 16.6283 110.551 16.6708C113.311 16.9492 116.097 16.8322 118.824 16.3233ZM103.535 44.1824C102.984 43.9696 100.443 44.3243 99.7301 44.4023C99.3842 44.4023 99.3701 44.9626 99.7301 44.9555L102.617 44.8633C103.951 44.8136 103.944 44.3455 103.535 44.1824ZM106.45 74.8714C105.857 74.7295 101.643 75.0487 100.951 75.0912C100.584 75.0912 100.655 75.6586 101.022 75.6515C101.77 75.6515 105.871 75.6515 106.521 75.4459C106.81 75.3466 106.711 74.9281 106.45 74.8714ZM100.944 71.8713C102.928 71.9635 107.841 72.0486 109.824 71.5734C109.87 71.573 109.916 71.5629 109.958 71.5437C110.001 71.5245 110.038 71.4966 110.069 71.4618C110.1 71.4271 110.123 71.3862 110.137 71.3419C110.152 71.2975 110.156 71.2507 110.151 71.2044C110.146 71.1581 110.132 71.1134 110.109 71.0731C110.085 71.0328 110.054 70.9978 110.017 70.9704C109.979 70.9431 109.936 70.9239 109.891 70.9141C109.846 70.9044 109.799 70.9043 109.753 70.9138C106.852 70.9138 104.163 71.4032 101.029 71.2755C100.655 71.2613 100.556 71.85 100.944 71.8713ZM107.791 59.2609C108.215 59.1829 108.179 58.5517 107.735 58.5517C104.601 58.8708 103.944 58.9489 100.732 59.0765C100.422 59.0765 100.387 59.6155 100.732 59.6368C103.092 59.7942 105.461 59.668 107.791 59.2609ZM112.139 54.7998C108.299 54.9416 104.311 55.5941 100.302 55.736C100.23 55.7471 100.165 55.7835 100.118 55.8388C100.07 55.8941 100.044 55.9646 100.044 56.0374C100.044 56.1103 100.07 56.1807 100.118 56.236C100.165 56.2913 100.23 56.3278 100.302 56.3388C103.626 56.3388 108.977 56.1828 112.217 55.4594C112.285 55.4293 112.341 55.3783 112.377 55.3137C112.414 55.2492 112.429 55.1746 112.42 55.1008C112.412 55.027 112.38 54.958 112.329 54.9038C112.279 54.8496 112.212 54.8132 112.139 54.7998ZM125.219 73.1337C125.163 73.1337 121.287 73.4529 120.624 73.4316C120.561 73.4429 120.503 73.4743 120.46 73.5212C120.416 73.568 120.389 73.6278 120.382 73.6915C120.374 73.7553 120.388 73.8196 120.42 73.8751C120.452 73.9305 120.502 73.9739 120.56 73.999C121.351 74.1479 124.683 74.2047 125.367 73.6231C125.402 73.5849 125.426 73.5384 125.437 73.4881C125.448 73.4378 125.446 73.3855 125.431 73.3361C125.416 73.2868 125.389 73.2422 125.352 73.2068C125.315 73.1713 125.269 73.1461 125.219 73.1337ZM126.468 57.6651C121.577 57.9843 116.113 58.1687 111.243 58.5871C110.862 58.5871 110.932 59.1616 111.299 59.1829C113.932 59.2609 123.299 58.7786 126.532 58.3673C126.578 58.3637 126.623 58.3509 126.664 58.3296C126.705 58.3083 126.742 58.2789 126.771 58.2432C126.801 58.2075 126.823 58.1662 126.837 58.1217C126.85 58.0773 126.854 58.0305 126.85 57.9843C126.841 57.8914 126.796 57.8058 126.724 57.746C126.653 57.6863 126.561 57.6572 126.468 57.6651ZM108.095 41.5369C108.188 41.5369 108.278 41.4996 108.344 41.4331C108.41 41.3666 108.448 41.2764 108.448 41.1823C108.448 41.0883 108.41 40.9981 108.344 40.9315C108.278 40.865 108.188 40.8277 108.095 40.8277C105.052 40.9057 101.982 40.927 98.9183 41.161C98.8525 41.1757 98.7936 41.2126 98.7514 41.2654C98.7092 41.3183 98.6862 41.384 98.6862 41.4518C98.6862 41.5196 98.7092 41.5853 98.7514 41.6382C98.7936 41.6911 98.8525 41.7279 98.9183 41.7426C101.996 41.7993 105.052 41.6362 108.095 41.5369ZM120.13 70.1691C119.057 70.1691 115.189 70.4457 114.271 70.6088C113.975 70.6585 113.932 71.1478 114.271 71.162C115.266 71.2117 119.113 70.9634 120.229 70.8642C120.659 70.8783 120.567 70.1691 120.13 70.1691ZM118.069 74.1479L109.196 74.7153C108.793 74.7153 108.892 75.3324 109.288 75.3111C111.01 75.2331 116.551 75.0132 118.104 74.8004C118.45 74.7579 118.457 74.1479 118.069 74.1479ZM111.716 12.5005C109.111 12.2026 100.937 12.6991 98.1631 12.9828C97.7819 13.0182 97.7537 13.614 98.1631 13.5785C102.723 13.2807 107.163 13.1814 111.723 13.1956C111.802 13.1785 111.874 13.1343 111.925 13.0704C111.976 13.0065 112.003 12.9269 112.002 12.8451C112.001 12.7633 111.972 12.6843 111.92 12.6215C111.868 12.5587 111.796 12.5159 111.716 12.5005ZM112.471 31.643C112.916 31.5791 112.753 30.9337 112.309 30.9337C107.765 31.4538 103.194 31.6907 98.6219 31.643C98.5555 31.6536 98.4952 31.6877 98.4516 31.739C98.408 31.7904 98.384 31.8556 98.384 31.9231C98.384 31.9906 98.408 32.0559 98.4516 32.1072C98.4952 32.1586 98.5555 32.1926 98.6219 32.2033C103.246 32.427 107.88 32.2395 112.471 31.643ZM107.678 16.7914C107.725 16.787 107.77 16.7734 107.811 16.7513C107.852 16.7292 107.888 16.6992 107.918 16.6629C107.948 16.6267 107.97 16.5849 107.983 16.54C107.996 16.4951 108.001 16.4479 107.996 16.4013C107.991 16.3547 107.978 16.3094 107.956 16.268C107.934 16.2266 107.904 16.1901 107.868 16.1604C107.832 16.1307 107.79 16.1085 107.746 16.0951C107.701 16.0817 107.654 16.0773 107.608 16.0822C104.495 16.4723 101.544 16.4864 98.4736 16.756C98.1489 16.7914 98.1136 17.3233 98.4736 17.3375C101.551 17.3875 104.628 17.205 107.678 16.7914ZM98.9325 28.0187C98.5795 28.0187 98.5725 28.579 98.9748 28.5932C100.242 28.7131 101.515 28.7463 102.787 28.6925C102.844 28.6668 102.892 28.625 102.927 28.5722C102.961 28.5193 102.979 28.4576 102.979 28.3946C102.979 28.3316 102.961 28.27 102.927 28.2171C102.892 28.1643 102.844 28.1225 102.787 28.0968C102.659 28.0258 99.5819 28.0187 98.9325 28.0187ZM90.1232 32.104C90.5326 32.104 92.0502 29.5791 92.9043 28.7138C93.2149 28.4017 92.7067 27.8769 92.389 28.1748C91.4886 28.9905 90.7089 29.9315 90.0738 30.9692L88.288 29.3167C87.9209 28.9762 87.448 29.5578 87.7868 29.9053C88.1256 30.2529 89.6009 32.104 90.1232 32.104ZM85.2951 20.522C88.1891 20.6923 91.1961 20.6355 94.3725 20.6568C94.5984 20.6568 94.7325 20.0256 94.3725 12.4934C94.3725 11.9473 94.3231 11.543 94.3161 11.3941C94.3179 11.3721 94.3151 11.35 94.3078 11.3292C94.3005 11.3084 94.2889 11.2895 94.2737 11.2735C94.069 11.0536 92.7349 11.0678 89.735 11.1458C84.688 11.2664 84.1304 11.2309 84.1304 11.5217C84.1092 11.5785 84.4268 20.4369 85.2951 20.522ZM85.4927 19.9972C85.1398 18.1035 84.8857 14.1034 84.6668 11.8622C86.7209 11.9827 91.4008 11.7487 93.7584 11.692C93.7584 11.692 93.8855 17.9971 93.942 20.0327C91.175 19.9688 88.288 19.8624 85.4645 19.9617L85.4927 19.9972Z" fill="black"/>
<path d="M95.4108 33.72C96.0069 33.4841 95.3115 26.821 95.2122 25.0695C95.2073 25.0335 95.1897 25.0004 95.1625 24.9765C94.7367 24.6048 85.7318 25.0981 85.2777 25.1338C84.8235 25.1696 85.2777 27.6575 85.3557 29.3518C85.5189 33.5699 85.7105 33.9345 85.9234 33.9631C87.4704 34.1847 93.9916 34.2776 95.4108 33.72ZM85.7105 25.7201C88.7831 25.5199 91.8983 25.5056 94.6658 25.4913C94.7367 27.1642 94.8503 31.8755 94.9922 33.1481C92.1001 33.4494 89.1897 33.5331 86.2853 33.3983C86.406 32.333 85.817 26.9283 85.7105 25.7201ZM91.4867 43.7718L93.133 42.2704C93.181 42.1887 93.2021 42.0938 93.1934 41.9992C93.1846 41.9047 93.1464 41.8153 93.0842 41.744C93.022 41.6726 92.9391 41.6229 92.8472 41.6019C92.7552 41.5809 92.6591 41.5896 92.5724 41.627C91.8983 42.0453 91.2867 42.558 90.7558 43.1498L89.2799 41.7771C89.1999 41.7022 89.0936 41.6624 88.9845 41.6664C88.8754 41.6705 88.7723 41.718 88.698 41.7986C88.6236 41.8792 88.5841 41.9862 88.5881 42.0961C88.5921 42.2061 88.6393 42.3099 88.7193 42.3848L90.1385 43.8146C88.8612 45.173 88.3006 46.0237 88.4283 46.4098C88.5561 46.7959 89.0173 46.6243 89.1379 46.4527C89.6347 45.8379 90.1952 45.1372 90.7984 44.4867C91.3963 45.1444 92.0598 45.7385 92.7782 46.2597C92.8523 46.279 92.9303 46.2779 93.0038 46.2564C93.0773 46.2349 93.1438 46.1938 93.1961 46.1374C93.2484 46.0811 93.2846 46.0115 93.301 45.9362C93.3174 45.8608 93.3133 45.7824 93.2891 45.7092C92.7549 45.0036 92.1511 44.3544 91.4867 43.7718ZM91.8628 13.1232C90.7293 14.1219 89.8032 15.3368 89.1379 16.6978C88.6034 16.0531 87.988 15.4811 87.3072 14.9963C86.8885 14.7032 86.3492 15.2608 86.7608 15.5754C87.5702 16.2961 88.3267 17.075 89.0244 17.906C89.2089 18.099 89.3863 17.9989 89.5424 17.7916C90.3152 16.2748 91.2683 14.8584 92.3808 13.5736C92.7214 13.1947 92.2318 12.7729 91.8628 13.1232ZM91.6357 59.8002C92.0047 59.5429 93.4098 56.8119 94.2258 55.8825C94.5451 55.525 93.9916 55.0317 93.6297 55.4106C92.6583 56.4189 91.8254 57.5538 91.1532 58.785L89.4998 57.3552C89.1379 57.0478 88.6554 57.5983 89.0315 57.9629C89.4076 58.3275 91.0255 60.3293 91.6357 59.8002ZM97.05 68.9655C96.7804 68.4293 87.073 68.9655 86.9807 68.9655C86.9596 68.9681 86.9394 68.976 86.922 68.9885C86.9047 69.001 86.8907 69.0176 86.8814 69.037C86.555 69.566 86.8814 78.1665 87.1156 78.9672C87.3923 79.9395 96.8017 79.1316 97.27 79.1745C97.2841 79.1777 97.2988 79.1777 97.3129 79.1745C97.327 79.1713 97.3403 79.1651 97.3517 79.1563C97.3632 79.1474 97.3727 79.1362 97.3794 79.1233C97.3861 79.1104 97.3899 79.0961 97.3906 79.0816C97.5396 77.9878 97.0855 69.037 97.05 68.9655ZM87.4349 69.4874C90.2733 69.6089 93.6297 69.4302 96.5107 69.423C96.5533 70.6169 96.8088 77.6231 96.8442 78.5668C93.6936 78.7098 91.0468 78.6598 87.6903 78.5668C87.7258 77.3729 87.4775 70.574 87.4349 69.5088V69.4874Z" fill="black"/>
<path d="M90.6162 73.6514C91.0835 73.6514 93.4729 73.8285 93.6637 73.7151C93.7141 73.6844 93.7571 73.6415 93.7894 73.5898C93.8218 73.5381 93.8426 73.4791 93.8503 73.4173C93.8579 73.3556 93.8522 73.2927 93.8335 73.2337C93.8149 73.1748 93.7838 73.1212 93.7427 73.0773C93.3939 72.6804 91.1888 72.7655 90.8202 72.8434C90.32 72.9427 90.2278 73.1482 90.241 73.3041C90.2585 73.3988 90.305 73.4844 90.373 73.5473C90.441 73.6103 90.5266 73.6469 90.6162 73.6514ZM91.5048 52.851C89.3458 52.8935 87.0749 52.9785 86.6997 53.0069C86.5549 53.0069 86.4035 53.1415 86.3838 54.6156C86.3838 56.3803 86.6668 61.972 87.325 62.0216C88.6415 62.1279 95.4475 62.1562 96.323 62.0853C96.4612 62.0853 96.5731 62.0853 96.323 58.4001C96.1847 56.5008 95.8754 53.0494 95.8754 53.0494C95.849 52.9077 95.8359 52.7801 91.5048 52.851ZM95.3817 53.4746C95.5397 56.1181 95.6253 58.8253 95.8885 61.483H87.5159C87.2592 58.9245 87.0881 56.2882 86.9038 53.5809L95.3817 53.4746ZM88.2531 48.861C90.9255 48.861 95.3949 48.4712 95.4344 48.4499C95.8556 48.216 95.4344 41.8165 95.2961 39.0809C95.2961 38.5919 92.9726 38.5848 91.044 38.6627C90.2015 38.6627 86.0152 38.9037 86.0284 39.5486C86.2521 49.0381 86.1995 48.5775 86.364 48.6767C86.98 48.8497 87.6183 48.912 88.2531 48.861ZM86.8643 48.1523C86.7129 45.36 86.6602 42.3976 86.5549 39.6478C89.2882 39.3865 92.0327 39.2871 94.7761 39.3502C94.7761 40.3211 94.9539 46.7774 95.0658 47.8546C94.0916 47.9255 87.8845 47.9751 86.884 48.1594L86.8643 48.1523Z" fill="black"/>
<path d="M141.544 60.4269C139.64 8.41549 140.44 8.85336 140.091 8.54685C139.596 8.07979 135.781 8.3863 134.843 8.43738L134.45 0.460887C134.469 0.412779 134.476 0.360848 134.471 0.309499C134.465 0.25815 134.447 0.2089 134.419 0.165925C134.39 0.122951 134.352 0.0875227 134.307 0.0626445C134.262 0.0377663 134.211 0.0241731 134.16 0.0230186C118.896 -0.166724 103.189 0.84767 87.439 1.92045C83.1943 2.21966 78.7825 2.48238 74.4651 2.94214C74.4247 2.93563 74.3834 2.93819 74.3441 2.94965C74.3049 2.96111 74.2686 2.98119 74.2381 3.00842C74.2075 3.03564 74.1833 3.06935 74.1672 3.10711C74.1512 3.14487 74.1437 3.18573 74.1453 3.22675C74.9448 22.7119 77.2706 54.2092 81.29 89.0854C81.3336 89.4868 84.648 89.1365 87.628 88.9394C87.667 89.7979 87.821 90.6473 88.0859 91.4645C88.522 92.0191 142.438 88.6621 142.373 86.356C142.14 77.6935 141.828 68.9216 141.544 60.4269ZM137.46 83.1815C118.344 86.1006 101.154 86.9179 81.9587 88.5818C78.1574 55.5155 76.5947 32.8339 74.6904 3.45299C80.5923 3.10269 102.419 1.0885 133.949 0.672522C134.734 21.8872 137.656 80.8462 137.438 83.1815H137.46ZM46.2204 33.0091C45.7262 33.0091 45.7334 33.9724 45.966 34.3373C45.9929 34.3907 46.0347 34.4351 46.0864 34.4649C46.138 34.4947 46.1973 34.5087 46.2567 34.5051C46.7001 34.454 46.6783 33.0602 46.2204 33.0091ZM43.6256 37.2272C43.9382 37.3075 44.7813 37.3586 44.9775 37.0667C45.2537 36.658 44.5051 32.9507 44.4106 32.688C44.3911 32.6344 44.3534 32.5894 44.304 32.5612C44.2546 32.5329 44.1969 32.5232 44.141 32.5337C44.0852 32.5442 44.0348 32.5743 43.999 32.6186C43.9632 32.6629 43.9442 32.7185 43.9454 32.7756C43.9454 33.4397 44.2434 35.6947 44.3597 36.6361L43.6329 36.6799C43.5797 36.7026 43.5343 36.7403 43.5022 36.7885C43.47 36.8367 43.4525 36.8932 43.4517 36.9512C43.4509 37.0092 43.4669 37.0661 43.4978 37.1151C43.5287 37.1641 43.5731 37.2031 43.6256 37.2272ZM45.6026 31.6444C45.8177 31.5852 46.044 31.5796 46.2618 31.6279C46.4796 31.6762 46.6825 31.777 46.8527 31.9217C47.1362 32.1771 47.6813 31.6882 46.9036 31.1919C46.344 30.8124 45.0357 30.6811 45.1738 31.3525C45.1963 31.446 45.2527 31.5277 45.332 31.5816C45.4113 31.6356 45.5078 31.658 45.6026 31.6444Z" fill="black"/>
<path d="M67.2416 61.0187C62.2449 56.0919 53.2539 50.3026 45.1721 49.1525C45.3059 48.6905 45.3059 48.2001 45.1721 47.7381C45.7873 47.2239 46.3591 46.6599 46.8817 46.0518C47.993 44.7463 47.9697 43.4719 46.3844 44.1169C47.9386 40.6821 47.9386 33.2375 47.3791 29.0568C49.9823 30.6809 54.3729 29.1189 53.8367 25.9484C57.3725 27.013 59.6727 19.9881 55.1811 18.7214C55.8106 13.4061 49.0032 12.6367 46.9206 15.7373C45.7472 12.3103 40.3541 14.1132 40.7427 16.802C38.3104 14.1909 33.0572 15.1001 32.3267 18.3561C30.1275 16.359 26.4985 17.206 26.8171 20.1512C23.3357 18.5349 21.494 22.7001 24.1983 24.0367C22.4654 24.9692 22.5198 28.8081 25.1774 28.8081C25.1774 31.3725 26.7316 37.2473 30.5783 40.4645C30.9901 44.0625 30.2519 45.9042 28.9697 49.2379C16.2875 51.1651 6.65925 61.0576 2.3386 73.3279C-2.58819 87.3156 -0.24913 100.526 14.3525 103.308C14.3221 105.175 14.1034 107.034 13.6997 108.857C13.6925 108.925 13.7102 108.995 13.7498 109.051C13.7893 109.108 13.848 109.149 13.915 109.166C13.9821 109.183 14.053 109.175 14.1148 109.144C14.1766 109.113 14.2251 109.061 14.2515 108.997C14.7717 107.186 15.0538 105.316 15.0907 103.433C18.6085 103.955 22.2021 103.407 25.4038 101.859C28.6056 100.311 31.267 97.8344 33.0416 94.7524C35.2912 95.607 37.5873 96.3334 39.9189 96.9283C47.2547 99.0031 56.8208 101.062 65.8817 98.6068C65.703 102.951 65.4543 106.432 65.0658 109.89C65.0658 110.232 65.5398 110.333 65.5942 109.991C65.8972 108.173 66.651 100.192 66.6044 98.397C72.3705 96.6252 76.2249 92.6232 77.1729 87.4244C78.8281 78.6121 75.0981 68.7197 67.2416 61.0187ZM34.2384 27.5492C34.4404 29.8183 34.2384 31.4347 33.5468 32.4837C33.2903 32.8645 32.9018 33.2608 32.5676 33.2608C32.3112 32.9811 30.6327 31.2404 29.0474 32.2584C28.0138 32.9345 27.9672 34.2478 28.9464 35.9574C29.6462 36.9958 30.1468 38.1552 30.4228 39.3766C27.4466 36.1439 26.5374 33.1132 25.8535 28.7692C26.6435 28.6268 27.3645 28.228 27.905 27.6347C29.265 29.6551 32.5909 29.251 34.2384 27.5492ZM29.4204 32.7713C30.4695 32.1263 31.4408 32.9034 32.3267 33.6805C32.8474 34.139 33.7022 33.494 34.1063 32.9034C35.1631 31.4424 35.0699 29.0179 34.93 27.8056C35.6843 28.524 36.6859 28.9246 37.7275 28.9246C38.7691 28.9246 39.7708 28.524 40.5251 27.8056C40.6805 30.0437 45.3742 30.5565 46.6097 28.6993C47.177 32.5848 47.449 40.9852 45.5684 44.5054C44.0142 45.1893 40.4785 46.7512 38.7222 46.0596C37.2146 45.4612 36.4531 43.161 34.6969 42.1741C33.5157 41.5214 32.5055 42.2596 33.3292 43.5807C35.4118 46.8911 35.2253 48.15 33.5778 51.5537C32.134 51.1602 30.7837 50.4811 29.6069 49.5565C31.3165 47.1087 31.7828 42.7414 31.3554 39.8351C30.9746 37.2473 30.5783 37.4028 29.5525 35.4911C29.0785 34.7062 28.6588 33.2531 29.4204 32.7713ZM42.53 48.4453C42.468 48.474 42.4187 48.5245 42.3913 48.5871C42.364 48.6497 42.3605 48.7202 42.3815 48.7852C42.4026 48.8502 42.4467 48.9053 42.5055 48.94C42.5643 48.9747 42.6339 48.9867 42.7009 48.9737C43.3673 48.8546 43.999 48.5892 44.5504 48.1966C44.5952 48.9212 44.4044 49.6409 44.0065 50.2482C43.8666 50.4424 44.1153 51.0252 44.6204 50.3026C44.5815 52.4473 43.4858 55.0972 41.3799 56.1385C39.9526 55.8805 38.5943 55.3295 37.3905 54.5204C36.1868 53.7112 35.1638 52.6614 34.386 51.4371C36.7173 47.4428 34.6658 44.4433 33.9819 43.1999C33.6012 42.485 33.7954 42.3762 34.4171 42.7803C35.8858 43.7128 37.1758 46.3161 38.5979 46.6657C41.2789 47.3107 44.5815 45.6944 46.1979 44.9717C47.0371 44.5909 47.5267 44.3345 46.5165 45.6011C45.1643 47.2719 44.395 47.6216 42.53 48.4453ZM9.6433 81.6117C9.61518 81.6749 9.61079 81.7461 9.63092 81.8123C9.65105 81.8785 9.69436 81.9352 9.7529 81.972C9.81145 82.0088 9.8813 82.0233 9.94967 82.0128C10.018 82.0023 10.0803 81.9675 10.1251 81.9148C16.9402 71.1753 28.2159 63.723 34.0208 52.2298C34.9222 54.2347 38.7766 56.8146 41.1545 56.8146C41.1545 58.7496 40.9603 61.0498 40.7582 63.2567C38.4269 62.7205 32.1247 60.7467 30.9901 58.1668C30.858 57.8482 30.3451 58.0657 30.4695 58.3843C31.5341 61.2674 38.1083 63.5831 40.6883 64.0727C40.1433 69.8791 39.0638 75.6229 37.4633 81.231C36.2899 85.4273 34.7823 90.5017 32.6065 94.2551C30.8718 97.341 28.2176 99.8088 25.0138 101.315C21.8099 102.82 18.2161 103.289 14.7333 102.655C0.38809 100.138 -1.77224 87.1991 3.10015 73.5299C7.65393 60.7234 17.6241 51.7091 29.1251 49.9995C30.3753 50.9213 31.7419 51.6739 33.1893 52.2375C27.3611 63.4821 16.2486 70.8645 9.6433 81.6117ZM38.1316 81.5573C45.6828 78.3751 53.7058 76.4559 61.8797 75.8768C64.211 75.7214 66.5422 75.7291 68.8735 75.7291C69.2154 75.7291 69.2232 75.1696 68.8735 75.1696C67.2882 75.0596 65.6982 75.0311 64.1099 75.0841C63.7292 71.9757 58.1263 62.907 56.2224 60.397C56.1737 60.3509 56.11 60.3239 56.043 60.3209C55.976 60.3178 55.9101 60.3389 55.8574 60.3803C55.8046 60.4218 55.7686 60.4808 55.7557 60.5466C55.7428 60.6124 55.754 60.6807 55.7872 60.7389C59.6028 66.0854 62.6878 72.8927 63.3018 75.1152C56.4711 75.3717 45.9337 76.988 38.3492 80.7025C39.0641 78.0837 41.8306 67.2821 41.8928 56.6126C44.0298 55.6567 45.5529 52.1987 45.3742 49.8751C53.4314 51.7101 60.8213 55.7453 66.721 61.5316C73.6449 68.3156 77.8878 77.0735 76.5823 86.5929C75.8907 92.0326 72.0285 96.2444 66.2625 97.7753C56.3234 100.495 46.0969 98.1328 36.2821 95.0866C35.332 94.7668 34.3642 94.5022 33.3836 94.2939C35.3697 90.2099 36.9596 85.9449 38.1316 81.5573Z" fill="black"/>
<path d="M37.751 31.5277C37.9518 31.2309 38.2197 30.9856 38.5328 30.8114C38.846 30.6373 39.1958 30.5393 39.5539 30.5253C40.1211 30.5253 40.0901 29.6704 39.5539 29.7482C39.0923 29.7967 38.6479 29.95 38.2546 30.1965C37.8614 30.4429 37.5296 30.776 37.2847 31.1702C37.0827 31.4888 37.5334 31.8385 37.751 31.5277ZM39.5849 33.6803C39.2663 33.9367 39.2896 35.2345 39.7714 35.2345C39.8816 35.223 39.9847 35.1744 40.0637 35.0968C40.1428 35.0192 40.1931 34.917 40.2066 34.807C40.3853 34.131 39.9269 33.4394 39.5849 33.6803ZM38.9011 40.0991C38.8866 40.0383 38.8536 39.9835 38.8068 39.9422C38.7599 39.9009 38.7014 39.8751 38.6393 39.8683C38.5772 39.8614 38.5146 39.874 38.4599 39.9042C38.4052 39.9344 38.3611 39.9807 38.3338 40.0369C38.2561 40.1457 38.1085 40.4798 38.4348 41.1559C38.6564 41.6162 39.0388 41.9794 39.5098 42.1769C39.9808 42.3745 40.5079 42.3928 40.9915 42.2283C41.057 42.2023 41.1106 42.1532 41.1423 42.0902C41.1739 42.0272 41.1813 41.9548 41.1631 41.8868C41.1449 41.8187 41.1023 41.7597 41.0435 41.7209C40.9846 41.6822 40.9136 41.6664 40.8438 41.6766C39.7404 41.8942 39.1031 41.1948 38.9011 40.0991Z" fill="black"/>
</svg>
