<svg width="18" height="19" viewBox="0 0 18 19" fill="none" xmlns="http://www.w3.org/2000/svg">
<path d="M12.9712 14.25V4.75H10.8093H6.48559H4.32373V14.25C4.32373 15.1244 4.969 15.8333 5.76497 15.8333H11.5299C12.3259 15.8333 12.9712 15.1244 12.9712 14.25Z" fill="black" fill-opacity="0.15"/>
<path d="M7.20604 7.91667V12.6667M10.0885 7.91667V12.6667M12.971 4.75V14.25C12.971 15.1244 12.3257 15.8333 11.5298 15.8333H5.7648C4.96883 15.8333 4.32356 15.1244 4.32356 14.25V4.75M12.971 4.75H10.8091M12.971 4.75H14.4122M4.32356 4.75H2.88232M4.32356 4.75H6.48542M10.8091 4.75V3.95833C10.8091 3.08388 10.1639 2.375 9.3679 2.375H7.92666C7.13069 2.375 6.48542 3.08388 6.48542 3.95833V4.75M10.8091 4.75H6.48542" stroke="#123F6D" stroke-linecap="round" stroke-linejoin="round"/>
</svg>
